<svg id="Layer_1" data-name="Layer 1" xmlns="http://www.w3.org/2000/svg" viewBox="0 0 100 100"><defs><style>.cls-1{fill:none;}.cls-1,.cls-2{stroke:#214577;stroke-linecap:round;stroke-linejoin:round;stroke-width:4px;}.cls-2{fill:#fff;}</style></defs><title>Artboard 1</title><circle class="cls-1" cx="49.86" cy="37.5" r="14.42"/><circle class="cls-1" cx="49.86" cy="36.67" r="4.39"/><path class="cls-1" d="M43.28,48.63a6.58,6.58,0,1,1,13.15,0"/><rect class="cls-1" x="18.5" y="15.5" width="63" height="68"/><path class="cls-1" d="M81.5,15.5h-63v-5a8.08,8.08,0,0,1,8.09-8h47a7.92,7.92,0,0,1,7.91,8Z"/><path class="cls-1" d="M73.59,97.5h-47a8.08,8.08,0,0,1-8.09-8v-6h63v6A8,8,0,0,1,73.59,97.5Z"/><rect class="cls-1" x="44.5" y="70.5" width="11" height="8"/><line class="cls-1" x1="38.5" y1="58.5" x2="60.5" y2="58.5"/><line class="cls-1" x1="44.5" y1="64.5" x2="55.5" y2="64.5"/><line class="cls-2" x1="55.5" y1="9.5" x2="44.5" y2="9.5"/><line class="cls-2" x1="55.5" y1="90.5" x2="44.5" y2="90.5"/></svg>
