<svg id="Layer_1" data-name="Layer 1" xmlns="http://www.w3.org/2000/svg" viewBox="0 0 100 100"><defs><style>.cls-1{fill:none;stroke:#214577;stroke-linecap:round;stroke-linejoin:round;stroke-width:4px;}</style></defs><title>Artboard 1</title><path class="cls-1" d="M23.5,8.5H18.89C13.36,8.5,10.5,13,10.5,18.58v57c0,5.53,2.86,9.91,8.39,9.91H23.5"/><path class="cls-1" d="M68.84,94.5H33.42a9.89,9.89,0,0,1-9.92-10V15.22A9.66,9.66,0,0,1,33.42,5.5h47c5.56,0,9.13,4.17,9.13,9.72V70.68Z"/><path class="cls-1" d="M89.5,68.5H74.78c-5.55,0-10.28,6-10.28,11.56V92.5"/><line class="cls-1" x1="80.5" y1="34.5" x2="49.5" y2="34.5"/><line class="cls-1" x1="80.5" y1="46.5" x2="49.5" y2="46.5"/><line class="cls-1" x1="80.5" y1="60.5" x2="61.5" y2="60.5"/></svg>
