<svg id="Layer_1" data-name="Layer 1" xmlns="http://www.w3.org/2000/svg" viewBox="0 0 100 100"><defs><style>.cls-1,.cls-2{fill:none;stroke:#214577;}.cls-1{stroke-miterlimit:10;}.cls-2{stroke-linecap:round;stroke-linejoin:round;stroke-width:4px;}</style></defs><title>Artboard 1</title><rect class="cls-1" x="5" y="4" width="90" height="8"/><rect class="cls-1" x="5" y="32" width="90" height="28"/><rect class="cls-1" x="15" y="65" width="23" height="11"/><rect class="cls-1" x="62" y="65" width="23" height="11"/><rect class="cls-2" x="5" y="4" width="90" height="92"/><rect class="cls-2" x="5" y="12" width="90" height="27"/><rect class="cls-2" x="5" y="39" width="90" height="21"/><rect class="cls-2" x="15" y="67" width="23" height="9"/><rect class="cls-2" x="62" y="67" width="23" height="9"/><line class="cls-2" x1="10" y1="31" x2="90" y2="31"/><line class="cls-2" x1="37" y1="17" x2="62" y2="17"/><line class="cls-2" x1="42" y1="24" x2="57" y2="24"/><line class="cls-2" x1="15" y1="82" x2="33" y2="82"/><line class="cls-2" x1="15" y1="89" x2="38" y2="89"/><line class="cls-2" x1="62" y1="82" x2="85" y2="82"/><line class="cls-2" x1="62" y1="89" x2="73" y2="89"/><line class="cls-2" x1="79" y1="89" x2="84" y2="89"/></svg>
